<?xml version="1.0" encoding="UTF-8"?>
<svg xmlns:xlink="http://www.w3.org/1999/xlink" width="159px" height="58px" viewBox="0 0 159 58" version="1.1"
     xmlns="http://www.w3.org/2000/svg">
    <title>Main_Logo</title>
    <defs>
        <linearGradient x1="-13.113359%" y1="5.01401847%" x2="97.1909885%" y2="72.9495083%" id="linearGradient-1">
            <stop stop-color="#FAB700" offset="30%"></stop>
            <stop stop-color="#FBBE0F" offset="36%"></stop>
            <stop stop-color="#FDD135" offset="53%"></stop>
            <stop stop-color="#FEDD4D" offset="67%"></stop>
            <stop stop-color="#FFE156" offset="76%"></stop>
        </linearGradient>
        <linearGradient x1="31.2781717%" y1="84.8295004%" x2="74.6880187%" y2="22.4495462%" id="linearGradient-2">
            <stop stop-color="#186657" offset="4%"></stop>
            <stop stop-color="#1B6F5D" offset="9%"></stop>
            <stop stop-color="#269274" offset="30%"></stop>
            <stop stop-color="#2DA782" offset="47%"></stop>
            <stop stop-color="#30AF87" offset="59%"></stop>
        </linearGradient>
        <linearGradient x1="47.5%" y1="48%" x2="53.5%" y2="42%" id="linearGradient-3">
            <stop stop-color="#186657" offset="4%"></stop>
            <stop stop-color="#1B6F5D" offset="9%"></stop>
            <stop stop-color="#269274" offset="30%"></stop>
            <stop stop-color="#2DA782" offset="47%"></stop>
            <stop stop-color="#30AF87" offset="59%"></stop>
        </linearGradient>
        <linearGradient x1="48.1099343%" y1="52.027027%" x2="53.1501096%" y2="46.6216216%" id="linearGradient-4">
            <stop stop-color="#186657" offset="4%"></stop>
            <stop stop-color="#1B6F5D" offset="9%"></stop>
            <stop stop-color="#269274" offset="30%"></stop>
            <stop stop-color="#2DA782" offset="47%"></stop>
            <stop stop-color="#30AF87" offset="59%"></stop>
        </linearGradient>
        <linearGradient x1="46.3828775%" y1="55.1724138%" x2="57.5124851%" y2="41.3793103%" id="linearGradient-5">
            <stop stop-color="#186657" offset="4%"></stop>
            <stop stop-color="#1B6F5D" offset="9%"></stop>
            <stop stop-color="#269274" offset="30%"></stop>
            <stop stop-color="#2DA782" offset="47%"></stop>
            <stop stop-color="#30AF87" offset="59%"></stop>
        </linearGradient>
        <linearGradient x1="44.75%" y1="56%" x2="60.15%" y2="34%" id="linearGradient-6">
            <stop stop-color="#186657" offset="4%"></stop>
            <stop stop-color="#1B6F5D" offset="9%"></stop>
            <stop stop-color="#269274" offset="30%"></stop>
            <stop stop-color="#2DA782" offset="47%"></stop>
            <stop stop-color="#30AF87" offset="59%"></stop>
        </linearGradient>
        <linearGradient x1="47%" y1="49.5%" x2="57%" y2="40.5%" id="linearGradient-7">
            <stop stop-color="#186657" offset="4%"></stop>
            <stop stop-color="#1B6F5D" offset="9%"></stop>
            <stop stop-color="#269274" offset="30%"></stop>
            <stop stop-color="#2DA782" offset="47%"></stop>
            <stop stop-color="#30AF87" offset="59%"></stop>
        </linearGradient>
        <linearGradient x1="43.8765264%" y1="62.7388535%" x2="61.5121303%" y2="28.343949%" id="linearGradient-8">
            <stop stop-color="#186657" offset="4%"></stop>
            <stop stop-color="#1B6F5D" offset="9%"></stop>
            <stop stop-color="#269274" offset="30%"></stop>
            <stop stop-color="#2DA782" offset="47%"></stop>
            <stop stop-color="#30AF87" offset="59%"></stop>
        </linearGradient>
    </defs>
    <g id="Page-1" stroke="none" stroke-width="1" fill="none" fill-rule="evenodd">
        <g id="afterLogin-1" transform="translate(-642.000000, -46.000000)" fill-rule="nonzero">
            <g id="Group-22" transform="translate(140.000000, 46.000000)">
                <g id="Main_Logo" transform="translate(502.000000, 0.000000)">
                    <path d="M78.84864,33.662304 L78.84864,29.865672 C81.3080944,29.8624591 83.3010751,27.8694784 83.304288,25.410024 L83.304288,25.334208 L71.698608,25.334208 L71.698608,18.201672 C71.698608,13.9500514 75.1452274,10.503432 79.396848,10.503432 C83.6484686,10.503432 87.095088,13.9500514 87.095088,18.201672 L87.095088,21.537576 L99.84384,21.537576 C100.140261,21.5376424 100.424217,21.4183162 100.631612,21.2065315 C100.839008,20.9947467 100.952361,20.7083551 100.946088,20.412 L100.946088,14.95908 L104.74272,14.95908 L104.74272,20.412 C104.739506,23.1162445 102.548084,25.3076664 99.84384,25.31088 L87.095088,25.31088 L87.095088,25.386696 C87.0997326,27.5778937 86.2333356,29.6811058 84.6866584,31.2332521 C83.1399812,32.7853985 81.0398404,33.659214 78.84864,33.662304 L78.84864,33.662304 Z M75.489408,21.537576 L83.304288,21.537576 L83.304288,18.201672 C83.304288,16.0436525 81.5548675,14.294232 79.396848,14.294232 C77.2388285,14.294232 75.489408,16.0436525 75.489408,18.201672 L75.489408,21.537576 Z"
                          id="Shape" fill="#54504F"></path>
                    <path d="M61.90668,25.334208 L44.748936,25.334208 L44.748936,21.537576 L61.90668,21.537576 C62.1990358,21.5314541 62.4769776,21.4094114 62.6793283,21.1983104 C62.8816789,20.9872095 62.9918529,20.704353 62.9856,20.412 L62.9856,14.970744 L66.7822642,14.970744 L66.7822642,20.412 C66.7919264,23.1162723 64.610922,25.3181476 61.90668,25.334208 Z"
                          id="Path" fill="#54504F"></path>
                    <rect id="Rectangle" fill="#54504F" x="94.145976" y="4.764744" width="10.415952"
                          height="3.7908"></rect>
                    <rect id="Rectangle" fill="#54504F" x="63.224712" y="5.517072" width="3.99492"
                          height="3.7908"></rect>
                    <rect id="Rectangle" fill="#54504F" x="57.625992" y="5.517072" width="3.773304"
                          height="3.7908"></rect>
                    <rect id="Rectangle" fill="#54504F" x="60.425352" y="0.589032" width="3.99492"
                          height="3.7908"></rect>
                    <rect id="Rectangle" fill="#54504F" x="38.351232" y="28.016928" width="10.415952"
                          height="3.7908"></rect>
                    <rect id="Rectangle" fill="#54504F" x="14.183424" y="4.764744" width="10.415952"
                          height="3.7908"></rect>
                    <path d="M18.6624,33.662304 L8.240616,33.662304 C3.93140854,33.6558735 0.440611032,30.1624671 0.4374,25.853256 L0.4374,23.438808 L4.2282,23.438808 L4.2282,25.853256 C4.23141199,28.0679204 6.02595165,29.86246 8.240616,29.865672 L18.6624,29.865672 C21.1231864,29.865672 23.118048,27.8708104 23.118048,25.410024 L23.118048,25.334208 L11.483208,25.334208 L11.483208,18.201672 C11.4060959,15.3997833 12.8568292,12.7770905 15.2712992,11.3534118 C17.6857693,9.92973305 20.6829587,9.92973305 23.0974288,11.3534118 C25.5118988,12.7770905 26.9626321,15.3997833 26.88552,18.201672 L26.88552,21.537576 L40.555728,21.537576 C40.8526657,21.537613 41.1371945,21.4184706 41.3455101,21.2068657 C41.5538258,20.9952609 41.6684965,20.7089007 41.663808,20.412 L41.663808,14.970744 L45.454608,14.970744 L45.454608,20.412 C45.4513944,23.1162445 43.2599725,25.3076664 40.555728,25.31088 L26.88552,25.31088 L26.88552,25.386696 C26.8920014,29.9394006 23.2150537,33.6398182 18.6624,33.662304 L18.6624,33.662304 Z M15.274008,21.537576 L23.088888,21.537576 L23.088888,18.201672 C23.088888,16.0436525 21.3394675,14.294232 19.181448,14.294232 C17.0234285,14.294232 15.274008,16.0436525 15.274008,18.201672 L15.274008,21.537576 Z"
                          id="Shape" fill="#54504F"></path>
                    <path d="M41.039784,43.984944 L41.039784,49.676976 C41.0103841,49.9782944 41.1075608,50.2782747 41.308056,50.50512 C41.5758367,50.6998145 41.9059341,50.7890862 42.235344,50.755896 L43.541712,50.755896 L43.541712,52.505496 L41.862096,52.505496 C41.0728259,52.566554 40.2885444,52.3362491 39.6576,51.858144 C39.0973333,51.2771105 38.8183466,50.4806142 38.893608,49.676976 L38.893608,43.984944 L37.680552,43.984944 L37.680552,42.235344 L38.893608,42.235344 L38.893608,39.692592 L41.039784,39.692592 L41.039784,42.25284 L43.541712,42.25284 L43.541712,44.00244 L41.039784,43.984944 Z"
                          id="Path" fill="#BDBABA"></path>
                    <path d="M45.058032,44.603136 C45.8709875,43.033465 47.5012224,42.0580336 49.268736,42.083712 C50.0022447,42.0674712 50.7287282,42.2295791 51.385752,42.556104 C51.9455385,42.8372947 52.4386871,43.2349952 52.832088,43.722504 L52.832088,42.25284 L54.978264,42.25284 L54.978264,52.528824 L52.832088,52.528824 L52.832088,51.00084 C52.4398261,51.5130283 51.9349693,51.9280885 51.356592,52.213896 C50.6966813,52.5451946 49.9661955,52.711305 49.227912,52.697952 C48.3726331,52.7056356 47.5329477,52.468905 46.807632,52.015608 C46.0616128,51.5537 45.4564862,50.896129 45.058032,50.114376 C44.6213979,49.2571398 44.4011534,48.3060842 44.416512,47.344176 C44.3984705,46.3912995 44.6189998,45.4490378 45.058032,44.603136 Z M52.394688,45.536256 C52.1196744,45.0482542 51.7162898,44.6448696 51.228288,44.369856 C50.7645789,44.0997099 50.2369573,43.9587423 49.700304,43.961616 C49.1630603,43.9566804 48.6340101,44.0934691 48.166488,44.358192 C47.6764491,44.6305136 47.2724096,45.0345531 47.000088,45.524592 C46.6915756,46.0866289 46.5385718,46.720789 46.556856,47.361672 C46.5413771,48.0115461 46.6940542,48.6543972 47.000088,49.227912 C47.2672131,49.7368332 47.6711947,50.1610138 48.166488,50.452632 C49.1092262,51.0011211 50.2738858,51.0011211 51.216624,50.452632 C51.7087441,50.1673547 52.1124135,49.7515752 52.383024,49.25124 C52.6850731,48.6785453 52.8356434,48.0381196 52.820424,47.390832 C52.8419222,46.7461631 52.6951972,46.107005 52.394688,45.536256 L52.394688,45.536256 Z"
                          id="Shape" fill="#BDBABA"></path>
                    <polygon id="Path" fill="#BDBABA"
                             points="71.302032 42.25284 68.111928 52.528824 65.9016 52.528824 63.83124 44.947224 61.76088 52.528824 59.4864 52.528824 56.2788 42.25284 58.442472 42.25284 60.588648 50.516784 62.769816 42.25284 64.991808 42.25284 67.068 50.47596 69.19668 42.25284"></polygon>
                    <path d="M75.763512,43.984944 L75.763512,49.676976 C75.7341121,49.9782944 75.8312888,50.2782747 76.031784,50.50512 C76.3082008,50.699315 76.6474874,50.7825755 76.9824,50.7384 L78.282936,50.7384 L78.282936,52.488 L76.609152,52.488 C75.8168026,52.543535 75.0318269,52.3047196 74.404656,51.81732 C73.8443893,51.2362865 73.5654026,50.4397902 73.640664,49.636152 L73.640664,43.984944 L72.427608,43.984944 L72.427608,42.235344 L73.640664,42.235344 L73.640664,39.692592 L75.78684,39.692592 L75.78684,42.25284 L78.282936,42.25284 L78.282936,44.00244 L75.763512,43.984944 Z"
                          id="Path" fill="#BDBABA"></path>
                    <path d="M87.077592,42.5736 C87.7003975,42.91632 88.2077364,43.435835 88.535592,44.066592 C88.9062385,44.8079321 89.0885147,45.6291768 89.066304,46.457712 L89.066304,52.528824 L86.95512,52.528824 L86.95512,46.784304 C87.0084025,46.016157 86.7617152,45.2572798 86.266944,44.667288 C85.7728676,44.1644455 85.0872711,43.8969992 84.383208,43.932456 C83.6756439,43.8966313 82.9863152,44.1638788 82.487808,44.667288 C81.9866523,45.2542847 81.7354193,46.0142646 81.787968,46.784304 L81.787968,52.528824 L79.659288,52.528824 L79.659288,38.72448 L81.787968,38.72448 L81.787968,43.442568 C82.1572813,43.0026246 82.6274761,42.658482 83.158488,42.439464 C83.7341136,42.197064 84.3535381,42.0759585 84.978072,42.083712 C85.7080075,42.0675218 86.4301998,42.2360333 87.077592,42.5736 Z"
                          id="Path" fill="#BDBABA"></path>
                    <path d="M92.781288,42.25284 L92.781288,52.528824 L90.652608,52.528824 L90.652608,42.25284 L92.781288,42.25284 Z M90.65844,38.4912 L92.775456,38.4912 L92.775456,40.59072 L90.65844,40.59072 L90.65844,38.4912 Z"
                          id="Shape" fill="#BDBABA"></path>
                    <path d="M94.822488,44.603136 C95.2225716,43.8332416 95.8281807,43.1892772 96.572088,42.742728 C97.3187803,42.3018761 98.1719573,42.0739589 99.039024,42.083712 C99.7754397,42.0703721 100.504033,42.2365073 101.161872,42.567768 C101.720038,42.8412739 102.207142,43.2405401 102.58488,43.734168 L102.58488,42.25284 L104.731056,42.25284 L104.731056,57.41604 L102.58488,57.41604 L102.58488,51.035832 C102.199966,51.5340894 101.702264,51.9338499 101.132712,52.202232 C100.459879,52.5323138 99.7183839,52.6982009 98.96904,52.686288 C98.1136307,52.6949488 97.2736764,52.4581424 96.54876,52.003944 C95.8029322,51.5418045 95.1978608,50.8842935 94.79916,50.102712 C94.3580155,49.246905 94.1356151,48.2951915 94.151808,47.332512 C94.141953,46.3807574 94.3726474,45.4419312 94.822488,44.603136 L94.822488,44.603136 Z M102.153312,45.536256 C101.878298,45.0482542 101.474914,44.6448696 100.986912,44.369856 C100.523536,44.0989103 99.9956914,43.9578831 99.458928,43.961616 C98.3634447,43.9488407 97.3482472,44.5347036 96.8112,45.4896 C96.5073218,46.0531976 96.3565085,46.6866134 96.3738,47.32668 C96.3593865,47.9757444 96.5098813,48.6178553 96.8112,49.19292 C97.0783251,49.7018412 97.4823067,50.1260218 97.9776,50.41764 C98.4392481,50.6882971 98.9646128,50.8312124 99.499752,50.831712 C100.036515,50.8354449 100.56436,50.6944177 101.027736,50.423472 C101.519856,50.1381947 101.923526,49.7224152 102.194136,49.22208 C102.496185,48.6493853 102.646755,48.0089596 102.631536,47.361672 C102.631897,46.7221816 102.467175,46.0934258 102.153312,45.536256 Z"
                          id="Shape" fill="#BDBABA"></path>
                    <rect id="Rectangle" fill="#F2C244" x="133.72776" y="35.330256" width="4.817232"
                          height="4.817232"></rect>
                    <path d="M147.858696,21.321792 L146.336544,22.412376 L142.254144,25.293384 L119.445192,10.456776 C119.056738,10.2023242 118.82512,9.76712375 118.830917,9.30278871 C118.836935,8.83845367 119.079551,8.40928668 119.474352,8.1648 L130.181904,1.638792 C133.018788,-0.106494591 136.611619,-0.0427434635 139.3848,1.802088 L148.179456,7.674912 L148.517712,7.90236 L148.517712,7.90236 C152.979192,11.3724 152.56512,18.003384 147.858696,21.321792 Z"
                          id="Path" fill="url(#linearGradient-1)"></path>
                    <rect id="Rectangle" fill="#F2C244" x="121.223952" y="54.634176" width="2.834352"
                          height="2.834352"></rect>
                    <polyline id="Path" fill="#55A980"
                              points="124.064136 49.816944 124.064136 44.970552 128.904696 44.970552 128.904696 49.816944 124.064136 49.816944"></polyline>
                    <polyline id="Path" fill="#326254"
                              points="124.064136 54.634176 124.064136 49.816944 128.904696 49.816944 128.904696 54.634176 124.064136 54.634176"></polyline>
                    <path d="M158.0472,26.605584 C158.0472,34.7474674 154.021149,42.3626067 147.292992,46.9476 L145.864152,47.991528 C144.241983,49.1753903 142.285319,49.8126337 140.277096,49.8111147 L138.527496,49.8111147 L138.527496,44.970552 L143.344728,44.970552 L143.344728,40.147488 L138.527496,40.147488 L138.527496,35.330256 L133.72776,35.330256 L133.72776,40.15332 L128.8872,40.15332 L128.8872,38.741976 C128.892175,36.2054735 130.124282,33.8281815 132.193944,32.361768 L142.224984,25.293384 L146.307384,22.412376 L147.829536,21.321792 C152.53596,18.003384 152.950032,11.3724 148.51188,7.908192 C148.867632,8.170632 149.200056,8.42724 151.42788,10.46844 C152.47754,11.5396852 153.419096,12.7117471 154.238904,13.96764 C154.472184,14.329224 154.6938,14.690808 154.909584,15.064056 C155.01456,15.25068 155.119536,15.437304 155.21868,15.647256 C155.440296,16.055496 155.650248,16.4754 155.848536,16.895304 C156.046824,17.315208 156.227616,17.746776 156.396744,18.184176 C157.467922,20.8636271 158.027727,23.7200163 158.0472,26.605584 Z"
                          id="Path" fill="url(#linearGradient-2)"></path>
                    <polygon id="Path" fill="url(#linearGradient-3)"
                             points="152.547624 11.664 152.285184 11.349072 152.361 11.436552"></polygon>
                    <path d="M151.480368,10.462608 C151.760304,10.742544 152.022744,11.045808 152.285184,11.325744 C152.022744,11.034144 151.760304,10.736712 151.480368,10.462608 Z"
                          id="Path" fill="url(#linearGradient-4)"></path>
                    <path d="M153.229968,12.486312 C153.008352,12.200544 152.780904,11.903112 152.547624,11.640672 C152.7984,11.920608 153.008352,12.200544 153.229968,12.486312 Z"
                          id="Path" fill="url(#linearGradient-5)"></path>
                    <path d="M154.291392,13.9968 C154.034784,13.600224 153.76068,13.215312 153.474912,12.8304 C153.76068,13.191984 154.034784,13.576896 154.291392,13.9968 Z"
                          id="Path" fill="url(#linearGradient-6)"></path>
                    <path d="M153.474912,12.8304 L153.229968,12.50964 L153.474912,12.8304 Z" id="Path"
                          fill="url(#linearGradient-7)"></path>
                    <path d="M155.901024,16.877808 C155.702736,16.457904 155.492784,16.038 155.271168,15.62976 C155.172024,15.443136 155.067048,15.256512 154.962072,15.04656 C155.07288,15.233184 155.172024,15.419808 155.277,15.62976 C155.498616,16.038 155.7144,16.457904 155.901024,16.877808 Z"
                          id="Path" fill="url(#linearGradient-8)"></path>
                    <polyline id="Path" fill="#55A980"
                              points="138.550824 44.970552 138.550824 40.15332 143.373888 40.15332 143.373888 44.970552 138.550824 44.970552"></polyline>
                    <polyline id="Path" fill="#55A980"
                              points="128.904696 44.970552 128.904696 40.15332 133.733592 40.15332 133.733592 44.970552 128.904696 44.970552"></polyline>
                    <polyline id="Path" fill="#F2C244"
                              points="128.904696 54.634176 128.904696 49.816944 133.733592 49.816944 133.733592 54.634176 128.904696 54.634176"></polyline>
                    <polyline id="Path" fill="#F2C244"
                              points="133.733592 49.816944 133.733592 44.970552 138.550824 44.970552 138.550824 49.816944 133.733592 49.816944"></polyline>
                </g>
            </g>
        </g>
    </g>
</svg>
