<?xml version="1.0" encoding="UTF-8"?>
<svg xmlns:xlink="http://www.w3.org/1999/xlink" width="409px" height="595px" viewBox="0 0 409 595" version="1.1"
     xmlns="http://www.w3.org/2000/svg">
    <title>tawthiqe-bg</title>
    <defs>
        <filter id="filter-1">
            <feColorMatrix in="SourceGraphic" type="matrix"
                           values="0 0 0 0 0.000000 0 0 0 0 0.000000 0 0 0 0 0.000000 0 0 0 1.000000 0"></feColorMatrix>
        </filter>
        <linearGradient x1="-13.113359%" y1="5.01401847%" x2="97.1909885%" y2="72.9495083%" id="linearGradient-2">
            <stop stop-color="#FAB700" offset="30%"></stop>
            <stop stop-color="#FBBE0F" offset="36%"></stop>
            <stop stop-color="#FDD135" offset="53%"></stop>
            <stop stop-color="#FEDD4D" offset="67%"></stop>
            <stop stop-color="#FFE156" offset="76%"></stop>
        </linearGradient>
        <linearGradient x1="31.2781717%" y1="84.8295004%" x2="74.6880187%" y2="22.4495462%" id="linearGradient-3">
            <stop stop-color="#186657" offset="4%"></stop>
            <stop stop-color="#1B6F5D" offset="9%"></stop>
            <stop stop-color="#269274" offset="30%"></stop>
            <stop stop-color="#2DA782" offset="47%"></stop>
            <stop stop-color="#30AF87" offset="59%"></stop>
        </linearGradient>
    </defs>
    <g id="Page-1" stroke="none" stroke-width="1" fill="none" fill-rule="evenodd" opacity="0.1">
        <g id="Dash-board-2-Copy-2" transform="translate(-1138.000000, -724.000000)">
            <g id="sidebar-menu-copy-9" transform="translate(1220.000000, 0.000000)">
                <g id="Group-2" transform="translate(-0.000000, 0.000000)">
                    <g id="tawthiqe-bg" transform="translate(-82.000000, 724.000000)">
                        <g filter="url(#filter-1)" id="Group-8">
                            <g transform="translate(0.000000, 0.000000)">
                                <rect id="Rectangle" fill="#F2C244" fill-rule="nonzero" x="155.074295" y="363.902804"
                                      width="50.1467904" height="50.1467904"></rect>
                                <path d="M302.175594,218.076424 L286.330179,229.429268 L243.832899,259.420206 L6.394525,104.972948 C2.35077053,102.324137 -0.0603483263,97.7937537 4.52942004e-13,92.9600832 C0.0626458323,88.1264128 2.58824254,83.6588374 6.698077,81.1137613 L118.162371,13.1788237 C147.693981,-4.98939426 185.094913,-4.32575289 213.963383,14.8787149 L305.514666,76.0140877 L309.035869,78.3817933 L309.035869,78.3817933 C355.479325,114.504481 351.168887,183.532206 302.175594,218.076424 Z"
                                      id="Path" fill="url(#linearGradient-2)" fill-rule="nonzero"></path>
                                <rect id="Rectangle" fill="#F2C244" fill-rule="nonzero" x="24.911197" y="564.854228"
                                      width="29.5052544" height="29.5052544"></rect>
                                <polyline id="Path" fill="#55A980" fill-rule="nonzero"
                                          points="54.4771618 514.707438 54.4771618 464.257096 104.866794 464.257096 104.866794 514.707438 54.4771618 514.707438"></polyline>
                                <polyline id="Path" fill="#326254" fill-rule="nonzero"
                                          points="54.4771618 564.854228 54.4771618 514.707438 104.866794 514.707438 104.866794 564.854228 54.4771618 564.854228"></polyline>
                                <path d="M408.236663,273.080046 C408.236663,357.836047 366.325973,437.108707 296.286685,484.837921 L281.412637,495.705083 C264.526058,508.028944 244.157428,514.662568 223.252074,514.646756 L205.038954,514.646756 L205.038954,464.257096 L255.185744,464.257096 L255.185744,414.049595 L205.038954,414.049595 L205.038954,363.902804 L155.074295,363.902804 L155.074295,414.110305 L104.684663,414.110305 L104.684663,399.418388 C104.736455,373.01371 117.562532,348.266394 139.107459,333.001211 L243.529347,259.420206 L286.026627,229.429268 L301.872042,218.076424 C350.865335,183.532206 355.175773,114.504481 308.975159,78.4425037 C312.678493,81.1744717 316.138986,83.8457293 339.330359,105.094369 C350.257187,116.2459 360.058673,128.446919 368.592771,141.520609 C371.021187,145.284654 373.328183,149.048699 375.574467,152.934164 C376.667255,154.876897 377.760042,156.81963 378.792119,159.005204 C381.099114,163.254932 383.284688,167.626081 385.348842,171.99723 C387.412995,176.368379 389.295018,180.860948 391.055619,185.414228 C402.20645,213.306983 408.033949,243.041642 408.236663,273.080046 Z"
                                      id="Path" fill="url(#linearGradient-3)" fill-rule="nonzero"></path>
                                <polyline id="Path" fill="#55A980" fill-rule="nonzero"
                                          points="205.281795 464.257096 205.281795 414.110305 255.489296 414.110305 255.489296 464.257096 205.281795 464.257096"></polyline>
                                <polyline id="Path" fill="#55A980" fill-rule="nonzero"
                                          points="104.866794 464.257096 104.866794 414.110305 155.135005 414.110305 155.135005 464.257096 104.866794 464.257096"></polyline>
                                <polyline id="Path" fill="#F2C244" fill-rule="nonzero"
                                          points="104.866794 564.854228 104.866794 514.707438 155.135005 514.707438 155.135005 564.854228 104.866794 564.854228"></polyline>
                                <polyline id="Path" fill="#F2C244" fill-rule="nonzero"
                                          points="155.135005 514.707438 155.135005 464.257096 205.281795 464.257096 205.281795 514.707438 155.135005 514.707438"></polyline>
                            </g>
                        </g>
                        <g id="Group-8" style="mix-blend-mode: luminosity;" transform="translate(0.000000, 0.000000)"
                           fill-rule="nonzero">
                            <rect id="Rectangle" fill="#F2C244" x="155.074295" y="363.902804" width="50.1467904"
                                  height="50.1467904"></rect>
                            <path d="M302.175594,218.076424 L286.330179,229.429268 L243.832899,259.420206 L6.394525,104.972948 C2.35077053,102.324137 -0.0603483263,97.7937537 4.52942004e-13,92.9600832 C0.0626458323,88.1264128 2.58824254,83.6588374 6.698077,81.1137613 L118.162371,13.1788237 C147.693981,-4.98939426 185.094913,-4.32575289 213.963383,14.8787149 L305.514666,76.0140877 L309.035869,78.3817933 L309.035869,78.3817933 C355.479325,114.504481 351.168887,183.532206 302.175594,218.076424 Z"
                                  id="Path" fill="url(#linearGradient-2)"></path>
                            <rect id="Rectangle" fill="#F2C244" x="24.911197" y="564.854228" width="29.5052544"
                                  height="29.5052544"></rect>
                            <polyline id="Path" fill="#55A980"
                                      points="54.4771618 514.707438 54.4771618 464.257096 104.866794 464.257096 104.866794 514.707438 54.4771618 514.707438"></polyline>
                            <polyline id="Path" fill="#326254"
                                      points="54.4771618 564.854228 54.4771618 514.707438 104.866794 514.707438 104.866794 564.854228 54.4771618 564.854228"></polyline>
                            <path d="M408.236663,273.080046 C408.236663,357.836047 366.325973,437.108707 296.286685,484.837921 L281.412637,495.705083 C264.526058,508.028944 244.157428,514.662568 223.252074,514.646756 L205.038954,514.646756 L205.038954,464.257096 L255.185744,464.257096 L255.185744,414.049595 L205.038954,414.049595 L205.038954,363.902804 L155.074295,363.902804 L155.074295,414.110305 L104.684663,414.110305 L104.684663,399.418388 C104.736455,373.01371 117.562532,348.266394 139.107459,333.001211 L243.529347,259.420206 L286.026627,229.429268 L301.872042,218.076424 C350.865335,183.532206 355.175773,114.504481 308.975159,78.4425037 C312.678493,81.1744717 316.138986,83.8457293 339.330359,105.094369 C350.257187,116.2459 360.058673,128.446919 368.592771,141.520609 C371.021187,145.284654 373.328183,149.048699 375.574467,152.934164 C376.667255,154.876897 377.760042,156.81963 378.792119,159.005204 C381.099114,163.254932 383.284688,167.626081 385.348842,171.99723 C387.412995,176.368379 389.295018,180.860948 391.055619,185.414228 C402.20645,213.306983 408.033949,243.041642 408.236663,273.080046 Z"
                                  id="Path" fill="url(#linearGradient-3)"></path>
                            <polyline id="Path" fill="#55A980"
                                      points="205.281795 464.257096 205.281795 414.110305 255.489296 414.110305 255.489296 464.257096 205.281795 464.257096"></polyline>
                            <polyline id="Path" fill="#55A980"
                                      points="104.866794 464.257096 104.866794 414.110305 155.135005 414.110305 155.135005 464.257096 104.866794 464.257096"></polyline>
                            <polyline id="Path" fill="#F2C244"
                                      points="104.866794 564.854228 104.866794 514.707438 155.135005 514.707438 155.135005 564.854228 104.866794 564.854228"></polyline>
                            <polyline id="Path" fill="#F2C244"
                                      points="155.135005 514.707438 155.135005 464.257096 205.281795 464.257096 205.281795 514.707438 155.135005 514.707438"></polyline>
                        </g>
                    </g>
                </g>
            </g>
        </g>
    </g>
</svg>
